<svg width="57" height="57" viewBox="0 0 57 57" fill="none" xmlns="http://www.w3.org/2000/svg">
<rect x="0.5" y="0.199219" width="56" height="56" rx="28" fill="#231452"/>
<path d="M25.3636 34.4776V33.9947C25.3731 32.3375 25.5199 31.0165 25.804 30.0316C26.0975 29.0468 26.5237 28.2513 27.0824 27.6452C27.6411 27.0392 28.3134 26.4899 29.0994 25.9975C29.6866 25.6187 30.2121 25.2257 30.6761 24.8185C31.1402 24.4113 31.5095 23.9615 31.7841 23.4691C32.0587 22.9672 32.196 22.4085 32.196 21.793C32.196 21.1396 32.0398 20.5666 31.7273 20.0742C31.4148 19.5818 30.9934 19.203 30.4631 18.9379C29.9422 18.6727 29.3646 18.5401 28.7301 18.5401C28.1146 18.5401 27.5322 18.6774 26.983 18.9521C26.4337 19.2172 25.9839 19.6149 25.6335 20.1452C25.2831 20.6661 25.0938 21.3147 25.0653 22.0913H19.2699C19.3172 20.1973 19.7718 18.6348 20.6335 17.4038C21.4953 16.1632 22.6364 15.2399 24.0568 14.6339C25.4773 14.0183 27.0445 13.7106 28.7585 13.7106C30.643 13.7106 32.3097 14.0231 33.7585 14.6481C35.2074 15.2636 36.3438 16.1585 37.1676 17.3327C37.9915 18.507 38.4034 19.9227 38.4034 21.5799C38.4034 22.6879 38.2188 23.6727 37.8494 24.5344C37.4896 25.3867 36.983 26.1443 36.3295 26.8072C35.6761 27.4606 34.9044 28.0524 34.0142 28.5827C33.2661 29.0278 32.6506 29.4918 32.1676 29.9748C31.6941 30.4577 31.339 31.0165 31.1023 31.6509C30.875 32.2854 30.7566 33.0666 30.7472 33.9947V34.4776H25.3636ZM28.1761 43.5685C27.2292 43.5685 26.4195 43.2371 25.7472 42.5742C25.0843 41.9019 24.7576 41.0969 24.767 40.1594C24.7576 39.2314 25.0843 38.436 25.7472 37.7731C26.4195 37.1102 27.2292 36.7788 28.1761 36.7788C29.0758 36.7788 29.8665 37.1102 30.5483 37.7731C31.2301 38.436 31.5758 39.2314 31.5852 40.1594C31.5758 40.7844 31.41 41.3574 31.0881 41.8782C30.7756 42.3896 30.3636 42.8015 29.8523 43.114C29.3409 43.417 28.7822 43.5685 28.1761 43.5685Z" fill="#402394"/>
</svg>
